<svg id="svg" xmlns="http://www.w3.org/2000/svg" xmlns:xlink="http://www.w3.org/1999/xlink" width="400" height="400" viewBox="0, 0, 400,400"><g id="svgg"><path id="path0" d="M345.313 2.559 C 336.744 5.491,332.926 8.338,318.750 22.368 L 305.078 35.900 334.988 65.801 L 364.897 95.703 378.757 81.641 C 396.867 63.266,400.010 57.491,399.991 42.632 C 399.953 13.736,372.165 -6.629,345.313 2.559 M220.892 120.128 C 184.050 156.979,153.906 187.314,153.906 187.538 C 153.906 187.763,151.088 201.996,147.644 219.168 C 140.461 254.980,140.497 257.269,148.261 258.853 C 150.173 259.244,206.211 248.699,212.109 246.839 C 213.678 246.344,236.544 224.007,281.247 179.301 L 348.041 112.502 318.360 82.814 C 302.036 66.485,288.499 53.125,288.279 53.125 C 288.059 53.125,257.735 83.276,220.892 120.128 M37.900 68.449 C 20.454 72.666,5.668 87.405,1.184 105.047 C -0.653 112.272,-0.600 356.434,1.239 363.559 C 4.824 377.444,14.512 389.240,27.714 395.794 L 35.400 399.609 165.130 399.814 C 294.282 400.017,294.881 400.011,299.693 398.410 C 315.653 393.098,328.990 378.239,332.450 361.911 C 333.371 357.564,333.569 344.108,333.580 285.114 L 333.594 213.588 331.545 209.476 C 325.738 197.824,308.001 197.532,301.684 208.984 C 300.515 211.102,300.353 218.222,300.000 282.813 C 299.562 363.058,300.027 357.126,293.714 362.830 C 288.660 367.396,293.995 367.223,165.114 367.002 L 45.703 366.797 42.013 364.628 C 39.620 363.221,37.560 361.161,36.154 358.768 L 33.984 355.078 33.779 235.667 C 33.552 103.235,33.204 111.798,39.046 106.139 C 44.753 100.609,42.170 100.781,119.447 100.781 L 188.035 100.781 191.479 98.963 C 203.042 92.859,202.854 74.991,191.165 69.166 L 187.193 67.188 114.886 67.253 C 54.618 67.307,41.799 67.506,37.900 68.449 " stroke="none" fill="#ffffff" fill-rule="evenodd"></path></g></svg>
