<svg id="svg" xmlns="http://www.w3.org/2000/svg" xmlns:xlink="http://www.w3.org/1999/xlink" width="400" height="400" viewBox="0, 0, 400,400"><g id="svgg"><path id="path0" d="M181.250 1.120 C 131.130 10.082,93.962 46.873,84.723 96.671 C 83.820 101.541,83.331 110.221,83.030 126.758 L 82.607 150.000 68.587 150.000 L 54.567 150.000 52.284 152.284 L 50.000 154.567 50.000 263.863 C 50.000 385.037,49.630 376.261,55.103 384.766 C 59.387 391.422,65.469 396.160,72.991 398.700 C 78.905 400.697,321.095 400.697,327.009 398.700 C 334.531 396.160,340.613 391.422,344.897 384.766 C 350.370 376.261,350.000 385.037,350.000 263.863 L 350.000 154.567 347.716 152.284 L 345.433 150.000 331.413 150.000 L 317.393 150.000 316.970 126.758 C 316.244 86.897,310.328 67.713,291.320 43.579 C 266.247 11.746,220.504 -5.900,181.250 1.120 M213.400 51.910 C 237.845 57.091,257.505 75.880,264.171 100.433 C 265.653 105.891,265.900 109.257,266.212 128.320 L 266.568 150.000 200.000 150.000 L 133.432 150.000 133.788 128.320 C 134.191 103.751,134.880 99.667,140.632 87.784 C 153.598 60.996,184.467 45.777,213.400 51.910 M208.110 218.368 C 232.909 224.827,241.285 257.572,222.320 273.917 L 219.249 276.563 221.754 299.415 C 225.685 335.269,227.285 332.813,200.000 332.813 C 172.715 332.812,174.315 335.269,178.246 299.415 L 180.751 276.563 177.680 273.917 C 152.661 252.356,175.878 209.973,208.110 218.368 " stroke="none" fill="#00ff5e" fill-rule="evenodd"></path></g></svg>