<svg id="svg" version="1.1" xmlns="http://www.w3.org/2000/svg" xmlns:xlink="http://www.w3.org/1999/xlink" width="400" height="400" viewBox="0, 0, 400,400"><g id="svgg"><path id="path0" d="M183.594 1.137 C 143.022 8.817,111.947 39.534,102.150 81.641 C 100.646 88.108,100.490 91.540,100.208 124.414 L 99.901 160.156 87.646 160.173 C 71.477 160.196,66.157 162.536,62.005 171.452 L 60.172 175.391 60.164 279.908 C 60.155 395.989,59.715 386.857,65.629 393.273 C 72.477 400.703,58.409 400.000,200.272 400.000 C 304.373 400.000,325.476 399.822,327.621 398.926 C 331.670 397.234,336.022 392.939,338.007 388.678 L 339.828 384.766 339.819 279.688 C 339.810 175.601,339.794 174.576,338.216 171.094 C 336.233 166.720,334.093 164.390,330.078 162.229 L 326.953 160.547 233.789 160.339 L 140.625 160.131 140.625 128.256 C 140.625 89.103,141.546 83.045,149.561 69.497 C 179.831 18.327,254.071 37.673,259.381 98.115 C 260.682 112.919,267.540 120.469,279.687 120.469 C 298.714 120.469,304.664 103.080,296.152 72.351 C 282.854 24.340,231.766 -7.983,183.594 1.137 M216.282 225.392 C 244.502 238.794,248.092 274.175,222.985 291.449 L 219.644 293.747 219.393 309.960 C 219.034 333.013,214.841 339.373,200.000 339.373 C 185.237 339.373,181.029 333.050,180.470 310.033 L 180.078 293.895 176.182 290.502 C 140.841 259.731,174.276 205.443,216.282 225.392 " stroke="none" fill="#FFFFFF" fill-rule="evenodd"></path></g></svg>