<svg id="svg" xmlns="http://www.w3.org/2000/svg" xmlns:xlink="http://www.w3.org/1999/xlink" width="400" height="400" viewBox="0, 0, 400,400"><g id="svgg"><path id="path0" d="M176.953 0.867 C 13.063 20.918,-58.712 218.967,54.824 337.860 C 166.751 455.067,364.326 398.163,396.498 239.453 C 423.310 107.183,310.450 -15.466,176.953 0.867 M285.911 93.368 C 287.000 93.944,296.034 102.615,305.988 112.637 C 332.166 138.997,332.219 137.144,304.500 164.631 C 284.390 184.572,281.110 186.365,273.070 181.811 C 263.636 176.468,263.195 167.448,271.919 158.264 C 274.902 155.123,277.344 152.303,277.344 151.997 C 277.344 151.691,268.818 151.556,258.398 151.697 L 239.453 151.953 234.131 154.474 C 222.871 159.807,221.404 161.723,184.725 219.022 C 153.301 268.111,143.527 275.284,106.641 276.328 C 81.370 277.043,71.876 272.305,74.688 260.381 C 77.105 250.131,79.935 248.918,102.674 248.396 C 133.354 247.690,133.851 247.314,161.848 203.613 C 197.492 147.975,200.660 143.688,212.231 135.431 C 225.112 126.239,232.872 124.246,258.032 123.667 L 277.392 123.222 272.411 118.056 C 269.475 115.011,267.023 111.650,266.437 109.870 C 262.649 98.351,275.207 87.710,285.911 93.368 M119.392 124.232 C 150.507 127.509,174.608 153.797,157.139 165.404 C 151.013 169.475,145.446 168.494,138.107 162.051 C 135.410 159.683,130.586 156.442,127.387 154.849 L 121.570 151.953 102.717 151.563 C 84.228 151.179,83.809 151.134,81.036 149.232 C 70.969 142.327,73.620 126.973,85.332 124.352 C 89.808 123.351,110.337 123.278,119.392 124.232 M284.929 217.596 C 286.698 218.335,294.107 225.063,304.500 235.369 C 332.324 262.960,332.322 261.219,304.550 288.800 C 282.916 310.286,281.592 311.004,272.643 306.108 C 263.537 301.125,263.442 291.246,272.411 281.944 L 277.392 276.778 258.032 276.354 C 232.567 275.795,225.496 273.963,212.109 264.455 C 198.706 254.936,194.953 246.520,200.392 238.181 C 205.758 229.952,214.943 230.145,224.229 238.681 C 226.886 241.124,231.399 244.231,234.257 245.585 L 239.453 248.047 258.398 248.303 C 268.818 248.444,277.344 248.297,277.344 247.975 C 277.344 247.654,275.066 245.031,272.281 242.147 C 265.250 234.864,264.128 231.070,267.094 224.609 C 270.359 217.501,277.747 214.595,284.929 217.596 " stroke="none" fill="#FFFFFF" fill-rule="evenodd"></path></g></svg>